<svg width="43" height="21" viewBox="0 0 43 21" fill="none" xmlns="http://www.w3.org/2000/svg">
<g clip-path="url(#clip0_3362_7378)">
<path d="M5.5 14.3867C2.95703 14.3867 0.882812 12.3125 0.882812 9.75781C0.882812 7.20312 2.95703 5.12891 5.5 5.12891C8.05469 5.12891 10.1289 7.20312 10.1289 9.75781C10.1289 12.3125 8.05469 14.3867 5.5 14.3867Z" fill="#BCBCBC"/>
<path d="M21.5 14.3867C18.957 14.3867 16.8828 12.3125 16.8828 9.75781C16.8828 7.20312 18.957 5.12891 21.5 5.12891C24.0547 5.12891 26.1289 7.20312 26.1289 9.75781C26.1289 12.3125 24.0547 14.3867 21.5 14.3867Z" fill="#BCBCBC"/>
<path d="M37.5 9.38672C34.957 9.38672 32.8828 7.3125 32.8828 4.75781C32.8828 2.20312 34.957 0.128906 37.5 0.128906C40.0547 0.128906 42.1289 2.20312 42.1289 4.75781C42.1289 7.3125 40.0547 9.38672 37.5 9.38672Z" fill="#BCBCBC"/>
</g>
<defs>
<clipPath id="clip0_3362_7378">
<rect width="43" height="21" fill="white"/>
</clipPath>
</defs>
</svg>
