<svg width="51" height="28" viewBox="0 0 51 28" fill="none" xmlns="http://www.w3.org/2000/svg">
<path d="M9.5 13.3867C6.95703 13.3867 4.88281 11.3125 4.88281 8.75781C4.88281 6.20312 6.95703 4.12891 9.5 4.12891C12.0547 4.12891 14.1289 6.20312 14.1289 8.75781C14.1289 11.3125 12.0547 13.3867 9.5 13.3867Z" fill="#BCBCBC"/>
<path d="M25.5 18.3867C22.957 18.3867 20.8828 16.3125 20.8828 13.7578C20.8828 11.2031 22.957 9.12891 25.5 9.12891C28.0547 9.12891 30.1289 11.2031 30.1289 13.7578C30.1289 16.3125 28.0547 18.3867 25.5 18.3867Z" fill="#BCBCBC"/>
<path d="M41.5 18.3867C38.957 18.3867 36.8828 16.3125 36.8828 13.7578C36.8828 11.2031 38.957 9.12891 41.5 9.12891C44.0547 9.12891 46.1289 11.2031 46.1289 13.7578C46.1289 16.3125 44.0547 18.3867 41.5 18.3867Z" fill="#BCBCBC"/>
</svg>
